<?xml version="1.0" encoding="utf-8"?>
<!-- Generator: Adobe Illustrator 22.1.0, SVG Export Plug-In . SVG Version: 6.00 Build 0)  -->
<svg version="1.1" id="Layer_1" xmlns="http://www.w3.org/2000/svg" xmlns:xlink="http://www.w3.org/1999/xlink" x="0px" y="0px"
	 viewBox="0 0 24 24" style="enable-background:new 0 0 24 24;" xml:space="preserve">
<style type="text/css">
	.st0{fill:#FFFFFF;}
</style>
<g>
	<g>
		<path class="st0" d="M24,0H0c0,0,0,0,0,0v24h24c0,0,0,0,0,0V0z M9.7,8.4c4-2.2,8.1,1.9,5.9,5.9c-0.3,0.5-0.7,0.9-1.2,1.2
			c-4,2.2-8.1-1.9-5.9-5.9C8.7,9.2,9.2,8.7,9.7,8.4z M21,21H3V10.5h2c-0.1,0.5-0.2,1-0.2,1.5c0,4,3.2,7.2,7.2,7.2
			c4,0,7.2-3.2,7.2-7.2c0-0.5-0.1-1-0.2-1.5h2L21,21L21,21z M21,7.5h-4.5V3H21V7.5z"/>
	</g>
</g>
</svg>
