<?xml version="1.0" encoding="utf-8"?>
<!-- Generator: Adobe Illustrator 22.1.0, SVG Export Plug-In . SVG Version: 6.00 Build 0)  -->
<svg version="1.1" id="Layer_1" xmlns="http://www.w3.org/2000/svg" xmlns:xlink="http://www.w3.org/1999/xlink" x="0px" y="0px"
	 viewBox="0 0 24 24" style="enable-background:new 0 0 24 24;" xml:space="preserve">
<style type="text/css">
	.st0{fill:#FFFFFF;}
</style>
<path class="st0" d="M0,0v24h24V0H0z M17.9,17.1c-0.1,0.1-0.1,0.5-0.2,0.7c-0.1,0.3-0.4,0.3-0.8,0.2c-0.5-0.1-0.9-0.1-1.5,0
	c-0.9,0.1-1.8,1.5-3.4,1.5c-1.7,0-2.6-1.3-3.5-1.5c-1-0.2-1.5,0.1-1.8,0.1c-0.3,0-0.3-0.2-0.4-0.3c-0.1-0.3-0.1-0.7-0.2-0.8
	C5.5,17,4,16.8,4,16.1c0-0.2,0.1-0.3,0.3-0.3c2.1-0.4,3.5-2.8,3.3-3.3c-0.2-0.4-0.8-0.5-1.1-0.6c-0.7-0.3-0.8-0.6-0.8-0.9
	c0.1-0.3,0.5-0.5,0.8-0.5c0.3,0,0.9,0.4,1.3,0.2C7.6,9.5,7.5,7.9,7.9,7c0.8-1.7,2.4-2.6,4.1-2.6c1.7,0,3.4,0.9,4.1,2.6
	c0.4,0.9,0.2,2.5,0.2,3.6c0.4,0.2,0.9-0.2,1.3-0.2c0.3,0,0.8,0.2,0.8,0.6c0,0.3-0.3,0.6-0.8,0.8c-0.3,0.1-1,0.2-1.1,0.6
	c-0.2,0.5,1.2,2.9,3.3,3.3c0.2,0,0.3,0.2,0.3,0.3C20,16.8,18.5,17,17.9,17.1z"/>
</svg>
